<svg xmlns="http://www.w3.org/2000/svg" width="475" height="184" fill="none" viewBox="0 0 475 184">
  <mask id="a" fill="#fff">
    <path fill-rule="evenodd" d="M142.5.156L0 91.663l142 91.186V184h333V1H142.5V.156z" clip-rule="evenodd"/>
  </mask>
  <path fill="#333" d="M0 91.663l-2.702-4.207-6.551 4.207 6.551 4.208L0 91.663zM142.5.156h5v-9.153l-7.702 4.946L142.5.156zM142 182.85h5v-2.731l-2.298-1.476-2.702 4.207zm0 1.151h-5v5h5v-5zm333 0v5h5v-5h-5zm0-183h5v-5h-5v5zM142.5 1h-5v5h5V1zM2.702 95.87l142.5-91.507-5.404-8.414-142.5 91.507 5.404 8.415zm142 82.772l-142-91.186-5.404 8.415 142 91.185 5.404-8.414zM147 184v-1.151h-10V184h10zm328-5H142v10h333v-10zM470 1v183h10V1h-10zM142.5 6H475V-4H142.5V6zm-5-5.844V1h10V.156h-10z" mask="url(#a)"/>
  <path fill="#333" fill-rule="evenodd" d="M243.66 50.828a4 4 0 015.657 0l28.843 28.844a4 4 0 005.657 0l28.843-28.844a4 4 0 015.657 0l3.536 3.536a4 4 0 010 5.657L293.01 88.864a4 4 0 000 5.657l29.139 29.139a4 4 0 010 5.657l-3.535 3.536a4 4 0 01-5.657 0l-29.14-29.14a4 4 0 00-5.657 0l-29.139 29.14a4 4 0 01-5.657 0l-3.536-3.536a4 4 0 010-5.657l29.14-29.14a4 4 0 000-5.656l-28.843-28.843a4 4 0 010-5.657l3.535-3.536z" clip-rule="evenodd"/>
</svg>
