<svg xmlns="http://www.w3.org/2000/svg" width="2273" height="486" fill="none" viewBox="0 0 2273 486">
  <path fill="#333" d="M474.5 382.7c-14.4 0-28-1.7-40.8-5.1-12.6-3.6-23.5-8.8-32.7-15.6-3.2-2.2-5.1-4.8-5.7-7.8-.6-3-.3-5.8.9-8.4 1.4-2.6 3.4-4.3 6-5.1 2.6-1 5.6-.4 9 1.8 9 6.6 18.6 11.3 28.8 14.1 10.2 2.8 21.7 4.2 34.5 4.2 18 0 31.3-3.3 39.9-9.9 8.8-6.8 13.2-15.7 13.2-26.7 0-8.8-3.2-15.8-9.6-21-6.2-5.2-16.7-9.3-31.5-12.3l-31.2-6.3c-18.8-4-32.9-10.5-42.3-19.5-9.2-9.2-13.8-21.4-13.8-36.6 0-12.6 3.2-23.6 9.6-33 6.6-9.4 15.7-16.7 27.3-21.9 11.6-5.2 25-7.8 40.2-7.8 12.6 0 24.3 1.8 35.1 5.4 11 3.4 20.9 8.6 29.7 15.6 2.8 2.2 4.4 4.8 4.8 7.8.6 2.8.2 5.4-1.2 7.8-1.4 2.4-3.4 4-6 4.8-2.6.6-5.7-.2-9.3-2.4-8-6.2-16.4-10.6-25.2-13.2-8.6-2.6-18-3.9-28.2-3.9-15.8 0-28.4 3.7-37.8 11.1-9.4 7.2-14.1 16.8-14.1 28.8 0 9.6 2.9 17.2 8.7 22.8 6 5.6 15.7 9.7 29.1 12.3l31.2 6.6c20.2 4.2 35.1 10.6 44.7 19.2 9.8 8.4 14.7 19.9 14.7 34.5 0 11.8-3.2 22.2-9.6 31.2-6.2 9-15.2 16-27 21-11.6 5-25.4 7.5-41.4 7.5zm128.47-.6c-8.2 0-12.3-4.3-12.3-12.9V179.3c0-8.6 4.1-12.9 12.3-12.9 8.2 0 12.3 4.3 12.3 12.9v189.9c0 8.6-4.1 12.9-12.3 12.9zm76.751 0c-7.6 0-11.4-4-11.4-12V178.4c0-8 3.8-12 11.4-12 3.2 0 5.7.7 7.5 2.1 2 1.2 3.8 3.3 5.4 6.3l77.7 146.4 77.4-146.4c1.6-3 3.3-5.1 5.1-6.3 1.8-1.4 4.4-2.1 7.8-2.1 7.4 0 11.1 4 11.1 12v191.7c0 8-3.8 12-11.4 12-7.6 0-11.4-4-11.4-12V214.7l-67.8 127.5c-1.4 2.6-2.9 4.5-4.5 5.7-1.4 1-3.5 1.5-6.3 1.5s-5-.6-6.6-1.8c-1.6-1.2-3-3-4.2-5.4l-68.7-127.2v155.1c0 8-3.7 12-11.1 12zm256.941 0c-8.2 0-12.3-4.3-12.3-12.9V181.1c0-8.4 4.2-12.6 12.6-12.6h71.098c22.8 0 40.2 5.5 52.2 16.5 12.2 11 18.3 26.7 18.3 47.1 0 20.2-6.1 35.9-18.3 47.1-12 11-29.4 16.5-52.2 16.5h-59.098v73.5c0 8.6-4.1 12.9-12.3 12.9zm12.3-107.1h56.098c32.8 0 49.2-14.3 49.2-42.9 0-28.8-16.4-43.2-49.2-43.2h-56.098V275zm177.848 105c-8.4 0-12.6-4.3-12.6-12.9V179.9c0-8.6 4.1-12.9 12.3-12.9 8.2 0 12.3 4.3 12.3 12.9v178.5h98.4c7.6 0 11.4 3.6 11.4 10.8 0 7.2-3.8 10.8-11.4 10.8h-110.4zm163.79 0c-9 0-13.5-4.5-13.5-13.5V182c0-9 4.5-13.5 13.5-13.5h111.6c7 0 10.5 3.4 10.5 10.2 0 7-3.5 10.5-10.5 10.5h-101.1v73.2h94.8c7 0 10.5 3.4 10.5 10.2 0 7-3.5 10.5-10.5 10.5h-94.8v76.2h101.1c7 0 10.5 3.4 10.5 10.2 0 7-3.5 10.5-10.5 10.5h-111.6zm330.24 2.7c-20.8 0-38.6-4.4-53.4-13.2-14.8-8.8-26.2-21.3-34.2-37.5-7.8-16.2-11.7-35.5-11.7-57.9 0-22.2 3.9-41.4 11.7-57.6 8-16.2 19.4-28.7 34.2-37.5 14.8-8.8 32.6-13.2 53.4-13.2 12.4 0 24.2 1.8 35.4 5.4 11.2 3.6 20.9 8.7 29.1 15.3 3.4 2.4 5.3 5.2 5.7 8.4.6 3.2.1 6.1-1.5 8.7-1.6 2.4-3.9 4-6.9 4.8-2.8.6-6-.4-9.6-3-14.2-11.4-31.4-17.1-51.6-17.1-23.8 0-42 7.5-54.6 22.5-12.6 15-18.9 36.1-18.9 63.3 0 27.4 6.3 48.6 18.9 63.6 12.6 15 30.8 22.5 54.6 22.5 20.2 0 37.6-5.8 52.2-17.4 3.6-2.4 6.8-3.3 9.6-2.7 3 .6 5.2 2.1 6.6 4.5 1.6 2.4 2.2 5.1 1.8 8.1-.4 3-2.1 5.7-5.1 8.1-8.6 7.2-18.5 12.7-29.7 16.5-11.2 3.6-23.2 5.4-36 5.4zm100.58-.6c-4.8 0-8.1-1.6-9.9-4.8-1.8-3.2-1.6-7.2.6-12l82.5-187.8c3.2-7.4 8.1-11.1 14.7-11.1 3 0 5.7.9 8.1 2.7 2.6 1.6 4.7 4.4 6.3 8.4l82.8 187.8c2.2 4.8 2.5 8.8.9 12-1.6 3.2-4.8 4.8-9.6 4.8-3.6 0-6.5-.9-8.7-2.7-2.2-2-4-4.8-5.4-8.4l-19.5-45h-110.1l-19.2 45c-3.2 7.4-7.7 11.1-13.5 11.1zm87.6-184.8l-45.9 108h92.4l-45.9-108h-.6zM1957.08 380c-8.4 0-12.6-4.3-12.6-12.9V179.9c0-8.6 4.1-12.9 12.3-12.9 8.2 0 12.3 4.3 12.3 12.9v178.5h98.4c7.6 0 11.4 3.6 11.4 10.8 0 7.2-3.8 10.8-11.4 10.8h-110.4zm230.95 2.7c-20.8 0-38.6-4.4-53.4-13.2-14.8-8.8-26.2-21.3-34.2-37.5-7.8-16.2-11.7-35.5-11.7-57.9 0-22.2 3.9-41.4 11.7-57.6 8-16.2 19.4-28.7 34.2-37.5 14.8-8.8 32.6-13.2 53.4-13.2 12.4 0 24.2 1.8 35.4 5.4 11.2 3.6 20.9 8.7 29.1 15.3 3.4 2.4 5.3 5.2 5.7 8.4.6 3.2.1 6.1-1.5 8.7-1.6 2.4-3.9 4-6.9 4.8-2.8.6-6-.4-9.6-3-14.2-11.4-31.4-17.1-51.6-17.1-23.8 0-42 7.5-54.6 22.5-12.6 15-18.9 36.1-18.9 63.3 0 27.4 6.3 48.6 18.9 63.6 12.6 15 30.8 22.5 54.6 22.5 20.2 0 37.6-5.8 52.2-17.4 3.6-2.4 6.8-3.3 9.6-2.7 3 .6 5.2 2.1 6.6 4.5 1.6 2.4 2.2 5.1 1.8 8.1-.4 3-2.1 5.7-5.1 8.1-8.6 7.2-18.5 12.7-29.7 16.5-11.2 3.6-23.2 5.4-36 5.4z"/>
  <rect width="80" height="80" y="100" fill="#FF4545" rx="8"/>
  <rect width="80" height="80" x="100" y="100" fill="#C4C4C4" rx="8"/>
  <rect width="280" height="80" fill="#C4C4C4" rx="8"/>
  <rect width="80" height="80" x="200" y="100" fill="#FFB545" rx="8"/>
  <rect width="80" height="80" y="200" fill="#C4C4C4" rx="8"/>
  <rect width="80" height="80" y="300" fill="#038EC9" rx="8"/>
  <rect width="80" height="80" x="100" y="200" fill="#C4C4C4" rx="8"/>
  <rect width="80" height="80" x="100" y="300" fill="#C4C4C4" rx="8"/>
  <rect width="80" height="180" x="200" y="200" fill="#00B533" rx="8"/>
</svg>
